<svg xmlns="http://www.w3.org/2000/svg" xml:space="preserve" width="1000px" height="402px" x="0px" y="0px" viewBox="0 8 1000 402"><path fill="#EC0080" d="M336.416 174.03H207.729a5.709 5.709 0 0 1-5.711-5.702c0 3.129 2.542 7.174 5.711 8.987l128.689 74.337c3.152 1.806 5.713.727 5.713-2.429V173.57c0-.889-.22-1.831-.598-2.796a5.645 5.645 0 0 1-5.117 3.256"/><path fill="#85288F" d="m336.416 164.591-58.986-34.095-69.702 40.245c-3.17 1.813-5.711.72-5.711-2.407 0 3.127 2.542 5.693 5.711 5.693h128.688a5.643 5.643 0 0 0 5.117-3.246c-.892-2.429-2.861-4.901-5.117-6.19"/><path fill="#FCB832" d="M342.131 11.788c0-3.171-2.565-4.249-5.691-2.409L207.73 83.65c-3.159 1.822-5.717 5.857-5.717 9.021a5.705 5.705 0 0 1 5.717-5.707h128.687a5.623 5.623 0 0 1 5.117 3.25c.386-.964.598-1.929.598-2.794V11.788h-.001z"/><path fill="#F5841E" d="M336.416 86.962H207.729a5.698 5.698 0 0 0-5.711 5.704c0-3.148 2.542-4.23 5.711-2.41l69.702 40.245 59.007-34.095c2.233-1.299 4.203-3.75 5.096-6.196a5.655 5.655 0 0 0-5.118-3.248"/><path fill="#44207A" d="m207.727 170.736 69.701-40.24-69.701-40.246c-3.163-1.811-5.714-.74-5.714 2.412v75.667c0 3.132 2.552 4.22 5.714 2.407M0 252.351h33.61v63.315l59.238-63.315h43.954l-67.88 70.864 73.691 81.637h-46.96L33.61 332.474v72.378H0z"/><path fill="#44207A" d="M281.133 394.086c-19.827 10.324-41.574 14.653-63.991 14.653-47.605 0-82.298-31.263-82.298-80.143 0-48.909 34.692-80.124 82.298-80.124 24.129 0 45.468 5.383 60.76 19.584l-23.714 25.871c-9.027-9.505-20.017-14.457-37.045-14.457-28.646 0-47.393 20.695-47.393 49.128 0 28.438 18.747 49.114 47.393 49.114 14.655 0 25.422-4.104 31.667-7.539v-24.76h-27.341v-31.028h59.664v79.701z"/><g fill="#44207A"><path d="M390.647 307.237c0-6.413 1.148-12.319 3.291-17.667 2.209-5.396 5.29-9.979 9.196-13.878 3.818-3.91 8.403-7.013 13.583-9.181 5.162-2.251 10.702-3.352 16.542-3.352 5.898 0 11.398 1.101 16.47 3.352 5.141 2.168 9.707 5.269 13.524 9.181 4.039 3.9 7.075 8.482 9.32 13.878 2.215 5.348 3.382 11.254 3.382 17.667 0 6.495-1.167 12.355-3.382 17.79-2.245 5.475-5.282 10.061-9.32 14.006-3.816 3.906-8.383 6.921-13.524 9.089-5.071 2.209-10.571 3.188-16.47 3.188-5.84 0-11.381-.98-16.542-3.188-5.179-2.168-9.766-5.183-13.583-9.089-3.906-3.945-6.987-8.531-9.196-14.006-2.144-5.434-3.291-11.297-3.291-17.79m18.813 0c0 4.154.66 7.893 1.823 11.121 1.235 3.337 2.868 6.112 5.01 8.532 2.147 2.385 4.652 4.208 7.498 5.437 2.889 1.271 6.047 1.917 9.469 1.917 3.29 0 6.367-.646 9.275-1.917a20.29 20.29 0 0 0 7.561-5.437c2.142-2.42 3.861-5.195 5.136-8.532 1.295-3.229 1.909-6.967 1.909-11.121 0-3.989-.614-7.729-1.909-10.999-1.275-3.355-2.995-6.264-5.136-8.622-2.085-2.419-4.61-4.249-7.561-5.396-2.908-1.291-5.985-1.861-9.275-1.861-3.422 0-6.581.571-9.469 1.861-2.846 1.147-5.35 2.979-7.498 5.396-2.142 2.357-3.776 5.266-5.01 8.622-1.164 3.27-1.823 7.008-1.823 10.999m89.079-55.31h18.621v156.148h-18.621V251.927z"/><path d="M518.543 409.52h-21.341V250.59h21.341v158.93zm-18.691-2.842h15.928V253.354h-15.928v153.324zm-66.575-53.921c-5.985 0-11.699-1.105-17.045-3.359a42.14 42.14 0 0 1-14.075-9.383c-4.031-3.999-7.244-8.897-9.468-14.377-2.229-5.667-3.332-11.759-3.332-18.4 0-6.546 1.103-12.653 3.332-18.183 2.225-5.515 5.437-10.351 9.468-14.343 3.969-4.079 8.769-7.264 14.051-9.477 10.641-4.543 23.588-4.543 34.098 0 5.245 2.214 9.897 5.397 13.995 9.477 3.964 3.99 7.218 8.827 9.526 14.343 2.274 5.529 3.483 11.637 3.483 18.183 0 6.642-1.21 12.733-3.483 18.4-2.309 5.479-5.562 10.378-9.526 14.377-4.098 4.034-8.75 7.219-14.035 9.383-5.206 2.253-10.977 3.359-16.989 3.359m0-88.112c-5.644 0-11.016 1.021-16.067 3.184a41.817 41.817 0 0 0-13.167 8.897c-3.779 3.805-6.729 8.222-8.81 13.438-2.163 5.143-3.188 10.912-3.188 17.073 0 6.284 1.024 12.076 3.188 17.233 2.082 5.22 5.031 9.773 8.81 13.548 3.801 3.732 8.214 6.751 13.167 8.828 10.041 4.079 22.224 4.079 32.033 0 4.97-2.077 9.403-5.098 13.188-8.828 3.711-3.775 6.704-8.329 8.868-13.548 2.147-5.157 3.229-10.993 3.229-17.233 0-6.161-1.081-11.932-3.229-17.073a42.187 42.187 0 0 0-8.868-13.438c-3.784-3.797-8.218-6.775-13.188-8.897-4.903-2.165-10.274-3.184-15.966-3.184m0 70.977c-3.654 0-6.96-.616-9.975-1.979-3.06-1.316-5.775-3.225-7.963-5.775-2.291-2.502-4.117-5.557-5.31-8.958-1.275-3.353-1.884-7.347-1.884-11.673 0-4.127.609-8.024 1.884-11.558 1.192-3.435 3.019-6.492 5.31-8.938a22.029 22.029 0 0 1 7.963-5.833c5.857-2.586 13.356-2.715 19.78 0 3.043 1.312 5.759 3.267 8.071 5.833 2.212 2.446 3.953 5.504 5.351 8.938 1.28 3.484 1.974 7.396 1.974 11.558 0 4.377-.694 8.32-1.974 11.755-1.398 3.36-3.14 6.376-5.351 8.876-2.25 2.549-4.986 4.459-8.071 5.775-3.117 1.363-6.409 1.979-9.805 1.979m0-53.867c-3.267 0-6.261.551-8.959 1.743-2.674 1.148-5.051 2.893-7.005 5.097-1.976 2.288-3.566 4.961-4.734 8.148-1.147 3.061-1.739 6.672-1.739 10.494 0 3.988.592 7.596 1.739 10.697a25.087 25.087 0 0 0 4.734 8.025 19.973 19.973 0 0 0 7.005 5.112c5.223 2.273 11.973 2.405 17.646 0a20.02 20.02 0 0 0 7.156-5.112c2.033-2.251 3.628-4.966 4.863-8.025 1.123-3.102 1.818-6.708 1.818-10.697 0-3.822-.694-7.352-1.818-10.494-1.234-3.188-2.829-5.861-4.863-8.197a20.358 20.358 0 0 0-7.156-5.048c-2.762-1.19-5.673-1.743-8.687-1.743M645.031 362.095h-89.207V261.859h18.6v83.589h70.607v16.647zm9.148-110.168h18.641v156.148h-18.641V251.927z"/><path d="M674.226 409.52h-21.363V250.59h21.363v158.93zm-18.665-2.842h15.926V253.354h-15.926v153.324zm-9.171-43.222h-91.947V260.553h21.355v83.497h70.591l.001 19.406zm-89.192-2.765h86.492v-13.844h-70.649v-83.523h-15.843v97.367zM781.269 369.523c-3.933-2.463-7.791-5.388-11.574-8.704a92.938 92.938 0 0 1-10.547-10.871c-3.291-3.842-6.27-7.807-8.836-12.015-2.566-4.116-4.589-8.242-6.014-12.269-1.521 4.29-3.645 8.58-6.17 12.866-2.525 4.24-5.437 8.317-8.688 12.272-3.33 3.946-6.835 7.603-10.743 11.077a100.315 100.315 0 0 1-12.143 9.3L695.3 356.491c5.184-3.188 10.151-7.095 14.824-11.722 4.607-4.669 8.811-10.025 12.506-16.092 3.544-6.096 6.383-12.57 8.53-19.492 2.271-6.964 3.332-14.565 3.332-22.82v-25.843h19.158v25.48c0 7.901.986 15.239 2.985 21.994a86.838 86.838 0 0 0 8.22 18.892 86.615 86.615 0 0 0 12.355 15.754c4.623 4.589 9.618 8.544 14.947 11.722l-10.888 15.159zm27.255-117.596h18.665v156.148h-18.665V251.927z"/><path d="M828.505 409.52h-21.34V250.59h21.34v158.93zm-18.642-2.842h15.878V253.354h-15.878v153.324zm-103.669-33.671-12.906-16.902 1.314-.76c5.117-3.148 10.004-7.051 14.545-11.595 4.501-4.525 8.662-9.853 12.291-15.833 3.503-5.931 6.326-12.339 8.514-19.199 2.147-6.832 3.168-14.351 3.168-22.325v-27.267h21.932v26.878c0 7.721.903 14.949 2.929 21.612 1.974 6.624 4.647 12.865 8.11 18.558 3.414 5.708 7.495 10.911 12.101 15.413a77.243 77.243 0 0 0 14.603 11.545l1.355.807-12.569 17.452-1.076-.597c-3.908-2.586-7.898-5.515-11.658-8.913-3.865-3.312-7.453-7.045-10.677-10.974-3.332-3.889-6.433-7.968-8.984-12.203a62.199 62.199 0 0 1-4.902-9.261 89.481 89.481 0 0 1-5.011 9.803c-2.566 4.252-5.521 8.498-8.852 12.487-3.266 3.949-6.968 7.684-10.826 11.168-3.907 3.521-8.07 6.659-12.341 9.468l-1.06.638zm-8.85-16.141 9.51 12.401c3.783-2.42 7.493-5.347 10.955-8.448 3.777-3.438 7.372-7.11 10.555-10.916 3.226-3.949 6.13-7.955 8.597-12.18a78.027 78.027 0 0 0 6.111-12.573l1.317-3.604 1.249 3.604c1.276 3.948 3.251 8.028 5.776 12.063 2.551 4.117 5.462 8.112 8.77 11.801 3.143 3.862 6.646 7.478 10.448 10.703a86.093 86.093 0 0 0 10.298 7.976l9.257-12.857c-4.888-3.103-9.536-6.923-13.887-11.255-4.78-4.627-8.984-9.982-12.569-15.926-3.505-5.899-6.303-12.438-8.343-19.249-2.04-6.862-3.142-14.417-3.142-22.401v-24.124h-16.388v24.512c0 8.312-1.087 16.086-3.356 23.175a91.898 91.898 0 0 1-8.77 19.877c-3.718 6.158-7.979 11.628-12.718 16.306-4.261 4.35-8.893 8.019-13.67 11.115M853.7 371.35h145.033v16.012H853.7V371.35zm73.2-67.98c-4.984 9.045-12.019 17.032-21.06 24.033-9.064 7.046-19.208 12.866-30.372 17.535l-10.709-14.437c5.89-2.167 11.877-5.097 17.915-8.746a90.88 90.88 0 0 0 16.971-13.038c4.945-4.796 9.067-9.979 12.373-15.626 3.25-5.624 4.888-11.505 4.888-17.577v-18.557h20.064v18.557c0 6.072 1.439 11.953 4.565 17.577 3.118 5.646 7.256 10.83 12.396 15.626 5.216 5.034 10.917 9.35 16.963 13.038 6.12 3.649 12.158 6.579 18.113 8.746l-10.677 14.437c-11.113-4.669-21.15-10.489-30.362-17.596-9.215-7.116-16.206-15.051-21.068-23.972"/><path d="M1000 388.801H852.409v-18.937H1000v18.937zm-144.85-2.841h142.192v-13.25H855.15v13.25zm123.592-39.323-.904-.428c-11.13-4.66-21.438-10.607-30.678-17.745-8.578-6.622-15.398-14.115-20.261-22.354-4.984 8.302-11.73 15.857-20.18 22.442-9.222 7.05-19.513 12.997-30.725 17.657l-.963.428-12.471-16.861 1.735-.632c5.8-2.102 11.782-5.008 17.729-8.663 6.046-3.546 11.615-7.897 16.7-12.784 4.869-4.664 8.853-9.846 12.085-15.367 3.167-5.347 4.672-10.998 4.672-16.814v-20.001h22.762v20.001c0 5.817 1.555 11.469 4.501 16.857 3.043 5.479 7.131 10.662 12.166 15.285a93.853 93.853 0 0 0 16.684 12.824c5.932 3.656 11.928 6.561 17.885 8.664l1.759.632-12.496 16.859zM867.02 331.099l8.909 12.124c10.621-4.503 20.468-10.13 29.105-16.926 8.942-6.872 15.835-14.789 20.656-23.646l1.209-2.169 1.218 2.169c4.664 8.704 11.682 16.639 20.649 23.563 8.777 6.749 18.624 12.505 29.087 17.008l8.926-12.124c-5.438-2-11.048-4.802-16.561-8.193a95.296 95.296 0 0 1-17.15-13.146c-5.256-4.9-9.518-10.251-12.701-16.033-3.21-5.75-4.871-11.924-4.871-18.21v-17.197H918.23v17.197c0 6.286-1.728 12.509-5.085 18.301-3.331 5.692-7.6 11.043-12.56 15.944a96.97 96.97 0 0 1-17.162 13.146c-5.485 3.349-11.056 6.192-16.403 8.192"/></g></svg>