<svg xmlns="http://www.w3.org/2000/svg" width="1022pt" height="265pt" viewBox="0 0 1022 265">
  <g/>
  <path d="M271.38 21.4c8.09-4.98 18.5-6.96 27.49-3.26 8.26 2.51 14.61 9.28 17.94 17.09 23.75 53.55 47.44 107.13 71.2 160.67 2.09 4.81 4.79 9.71 4.44 15.12-.17 8-5.12 15.69-12.37 19.09-7.92 3.91-18.25 2.66-24.72-3.45-3.31-2.88-5.63-6.68-7.36-10.66-4.71-10.84-9.2-21.77-13.99-32.56-30.74-.13-61.47-.06-92.21-.03-3.85 8.39-7.19 17-10.93 25.43-2.66 5.81-4.41 12.34-9.13 16.91-6.01 6.14-15.74 8.32-23.76 5.19-8.06-2.98-13.99-11.29-13.68-19.95-.2-3.59 1.08-7 2.5-10.23 24.22-54.51 48.33-109.08 72.51-163.61 2.53-6.18 6.39-12.05 12.07-15.75m8.1 72.04c-6.69 16.32-13.97 32.42-20.27 48.89 19.13.13 38.26.16 57.39-.02-1.21-3.41-2.52-6.77-3.98-10.07-8.25-19.48-16.33-39.03-24.63-58.49-3.18 6.41-5.68 13.13-8.51 19.69M659.46 16.9c8.46-1.21 17.1-.73 25.62-.39 8.52 1.5 17.16 2.61 25.47 5.14 11.65 3.54 22.74 9.03 32.41 16.43 6.04 4.64 9.47 12.35 8.73 19.96-.44 11.87-11.91 21.8-23.71 20.72-9.35.32-15.79-7.34-23.59-11.16-12.93-7.15-28.28-9.84-42.85-7.3-14.5 2.52-27.85 10.81-36.66 22.57-20.97 27.67-17.61 71.41 8.89 94.38 20.7 18.15 53.33 18.29 75.84 3.36 5.8-3.5 10.56-9.06 17.45-10.47 10.21-2.49 21.57 3.89 24.97 13.8 3.04 7.5.76 16.54-4.96 22.14-18.34 17.69-43.69 27.34-69.05 27.74-9.25.08-18.6.42-27.71-1.45-20.92-3.77-40.85-13.7-55.88-28.8-24.03-23.27-35.05-58.36-30.95-91.31 3.47-34.81 25.02-67.48 56.38-83.3 12.28-6.58 25.94-9.86 39.6-12.06m205.95-.21c7.17-.8 14.44-.55 21.65-.27 12.14 1.88 24.4 4.07 35.76 8.95 29.66 11.95 53.21 38.03 61.75 68.88 3.929 16.5 5.246 40.685 1.62 55.18-4.31 19.13-13.81 37.15-27.6 51.15-15.83 16.54-37.17 27.47-59.64 31.53-11.52 2.35-23.36 1.94-35.03 1.43-20.57-2.18-40.77-9.58-57.21-22.26-11.99-9.03-21.82-20.81-28.93-34-18.36-34.44-16.66-78.9 4.98-111.5 13.68-21.05 35.1-36.75 59.09-43.99 7.66-2.5 15.68-3.5 23.56-5.1m4.06 43.04c-14.84 1.55-29.06 8.57-39 19.75-19.64 21.72-22.14 56.35-7.2 81.28 7.02 11.81 17.96 21.32 30.82 26.24 16.99 6.62 36.83 5.65 52.95-2.96 10.65-5.54 19.37-14.44 25.01-25 9.07-16.87 10.71-37.48 4.74-55.64-5.01-15.55-16.06-29.25-30.59-36.83-11.18-5.96-24.17-8.14-36.73-6.84M44.13 19.38c3.5-1.18 7.24-.95 10.88-.96 19.66.06 39.33 0 58.99.02 12.63-.2 25.34 1.94 37.11 6.54 14.99 5.87 28.08 16.98 35.42 31.41 7.76 15.08 9.41 32.77 6.81 49.36-2.47 15.47-10.32 30.12-22.43 40.15-17.08 14.32-39.98 20.02-61.92 19.66-11.51.01-23.03-.07-34.55.03-.21 14.76.01 29.52-.1 44.28-.16 7.52-4.24 14.78-10.58 18.82-5.38 3.34-12.12 4.62-18.29 2.97-8.25-1.91-15.08-8.75-16.95-17-.68-3.85-.36-7.78-.41-11.66.01-51.67.01-103.33-.01-155 .08-4.14-.3-8.34.52-12.43 1.98-7.56 8.01-13.93 15.51-16.19M74.4 60.41c-.09 21.26-.01 42.52-.04 63.78 11.54.42 23.09.04 34.64.2 10.08.27 20.76-2.08 28.49-8.92 12.03-10.45 13.17-30.3 3.91-42.89-6.46-8.22-17.23-11.62-27.34-12.15-13.22-.12-26.44-.03-39.66-.02m297.82-33.19c7.48-9.83 23.03-11.77 32.81-4.29 5.4 4.01 8.9 9.88 12.69 15.3 12.74 18.3 25.43 36.63 38.17 54.93 2.9 4.21 5.65 8.54 8.98 12.45 17.81-25.14 35.35-50.47 53.1-75.66 4.75-6.76 12.45-12.22 21.03-11.76 6.99-.34 14.16 2.75 18.27 8.5 3.94 5.72 5.42 13.25 3.37 19.95-1.11 4.1-3.27 7.82-5.77 11.22-21.85 29.47-43.73 58.93-65.56 88.42-.98 1.37-1.95 2.88-1.73 4.64-.04 20.04.05 40.07-.03 60.1-.49 11.57-11.06 21.19-22.52 21.34-11.84.57-23.32-9.36-23.64-21.36-.08-19.69 0-39.39-.03-59.08.19-1.75-.77-3.24-1.72-4.61-20.08-27.24-40.13-54.5-60.2-81.75-3.59-5.13-8-9.84-10.2-15.8-2.88-7.38-2-16.26 2.98-22.54" fill="#fa2829"/>
</svg>
